<svg width="28" height="28" viewBox="0 0 28 28" fill="none" xmlns="http://www.w3.org/2000/svg">
<path d="M5.5 7H4C3.20435 7 2.44129 7.31607 1.87868 7.87868C1.31607 8.44129 1 9.20435 1 10V23.5C1 24.2956 1.31607 25.0587 1.87868 25.6213C2.44129 26.1839 3.20435 26.5 4 26.5H17.5C18.2956 26.5 19.0587 26.1839 19.6213 25.6213C20.1839 25.0587 20.5 24.2956 20.5 23.5V22" stroke="#0039F6" stroke-width="2" stroke-linecap="round" stroke-linejoin="round"/>
<path d="M19 4.00016L23.5 8.50016M25.5775 6.37766C26.1683 5.78689 26.5002 4.98564 26.5002 4.15016C26.5002 3.31469 26.1683 2.51343 25.5775 1.92266C24.9867 1.33189 24.1855 1 23.35 1C22.5145 1 21.7133 1.33189 21.1225 1.92266L8.5 14.5002V19.0002H13L25.5775 6.37766Z" stroke="#0039F6" stroke-width="2" stroke-linecap="round" stroke-linejoin="round"/>
</svg>
