<svg width="28" height="28" viewBox="0 0 28 28" fill="none" xmlns="http://www.w3.org/2000/svg">
<path d="M23.8 0H4.2C3.08609 0 2.0178 0.442499 1.23015 1.23015C0.442499 2.0178 0 3.08609 0 4.2V23.8C0 24.9139 0.442499 25.9822 1.23015 26.7698C2.0178 27.5575 3.08609 28 4.2 28H23.8C24.0303 27.9968 24.2598 27.9734 24.486 27.93L24.906 27.832H25.004H25.074L25.592 27.636L25.774 27.538C25.914 27.454 26.068 27.384 26.208 27.286C26.3949 27.1485 26.5727 26.9988 26.74 26.838L26.838 26.712C26.9754 26.5727 27.1018 26.4229 27.216 26.264L27.342 26.082C27.4398 25.9261 27.5241 25.7622 27.594 25.592C27.6324 25.5248 27.6652 25.4546 27.692 25.382C27.762 25.214 27.804 25.032 27.86 24.85V24.64C27.9394 24.3664 27.9864 24.0845 28 23.8V4.2C28 3.08609 27.5575 2.0178 26.7698 1.23015C25.9822 0.442499 24.9139 0 23.8 0ZM4.2 25.2C3.8287 25.2 3.4726 25.0525 3.21005 24.7899C2.9475 24.5274 2.8 24.1713 2.8 23.8V17.766L7.406 13.146C7.53615 13.0148 7.69099 12.9106 7.86159 12.8396C8.0322 12.7685 8.21518 12.7319 8.4 12.7319C8.58482 12.7319 8.7678 12.7685 8.93841 12.8396C9.10901 12.9106 9.26385 13.0148 9.394 13.146L21.434 25.2H4.2ZM25.2 23.8C25.1987 23.9726 25.1655 24.1435 25.102 24.304C25.07 24.3722 25.0325 24.4378 24.99 24.5C24.9525 24.5593 24.9104 24.6154 24.864 24.668L17.374 17.178L18.606 15.946C18.7361 15.8148 18.891 15.7106 19.0616 15.6396C19.2322 15.5685 19.4152 15.5319 19.6 15.5319C19.7848 15.5319 19.9678 15.5685 20.1384 15.6396C20.309 15.7106 20.4639 15.8148 20.594 15.946L25.2 20.566V23.8ZM25.2 16.604L22.568 14C21.7668 13.2398 20.7045 12.816 19.6 12.816C18.4955 12.816 17.4332 13.2398 16.632 14L15.4 15.232L11.368 11.2C10.5668 10.4398 9.50446 10.016 8.4 10.016C7.29554 10.016 6.23319 10.4398 5.432 11.2L2.8 13.804V4.2C2.8 3.8287 2.9475 3.4726 3.21005 3.21005C3.4726 2.9475 3.8287 2.8 4.2 2.8H23.8C24.1713 2.8 24.5274 2.9475 24.7899 3.21005C25.0525 3.4726 25.2 3.8287 25.2 4.2V16.604ZM16.1 5.6C15.6847 5.6 15.2786 5.72316 14.9333 5.95391C14.588 6.18466 14.3188 6.51264 14.1599 6.89636C14.0009 7.28009 13.9593 7.70233 14.0404 8.10969C14.1214 8.51705 14.3214 8.89123 14.6151 9.18492C14.9088 9.47861 15.2829 9.67862 15.6903 9.75965C16.0977 9.84068 16.5199 9.79909 16.9036 9.64015C17.2874 9.4812 17.6153 9.21204 17.8461 8.8667C18.0768 8.52135 18.2 8.11534 18.2 7.7C18.2 7.14305 17.9788 6.6089 17.5849 6.21508C17.1911 5.82125 16.657 5.6 16.1 5.6Z" fill="#AAAAAA"/>
</svg>
