<svg width="129" height="61" viewBox="0 0 129 61" fill="none" xmlns="http://www.w3.org/2000/svg">
<path d="M15.9893 15.765C15.9893 19.506 13.1473 22.377 9.34835 22.377C7.86935 22.377 6.76735 22 5.81035 21.043V22H1.80835V15.359H6.47735C6.50635 17.186 7.37635 18.027 8.71035 18.027C9.95735 18.027 10.8273 17.215 10.8273 16.055C10.8273 13.648 7.02835 14.199 3.98335 11.763C2.50435 10.574 1.69235 9.037 1.69235 7.239C1.69235 3.788 4.47635 0.829999 8.13035 0.829999C9.95735 0.829999 10.7983 1.555 11.4653 2.106V1.294H15.3223V7.297H10.7693C10.6823 5.934 9.87035 5.209 8.79735 5.209C7.66635 5.209 6.85435 5.905 6.85435 6.978C6.85435 9.298 10.0733 8.95 13.0603 10.69C14.9743 11.792 15.9893 13.532 15.9893 15.765ZM36.3127 14.257C36.3127 18.636 32.7747 22.319 28.6857 22.319C26.2207 22.319 24.9157 21.217 24.0457 20.521V23.131H25.6987V27.365H17.7817V23.131H19.4347V10.603H17.7817V6.369H24.0457V8.196C25.0607 6.775 26.5397 6.05 28.3957 6.05C32.7167 6.05 36.3127 9.762 36.3127 14.257ZM31.6147 14.17C31.6147 12.053 29.8747 10.4 27.7577 10.4C25.6407 10.4 23.9007 12.082 23.9007 14.199C23.9007 16.316 25.6407 17.969 27.7577 17.969C29.8747 17.969 31.6147 16.258 31.6147 14.17ZM54.5587 14.141C54.5587 18.723 50.8467 22.493 46.2357 22.493C41.6247 22.493 37.9127 18.752 37.9127 14.17C37.9127 9.588 41.6247 5.876 46.2357 5.876C50.8467 5.876 54.5587 9.559 54.5587 14.141ZM49.8897 14.17C49.8897 12.082 48.2657 10.4 46.2357 10.4C44.2057 10.4 42.5817 12.111 42.5817 14.17C42.5817 16.229 44.2057 17.969 46.2357 17.969C48.2657 17.969 49.8897 16.229 49.8897 14.17ZM74.2186 22H67.9546V13.213C67.9546 11.386 67.0556 10.574 65.5186 10.574C62.9086 10.574 62.7346 12.546 62.7346 14.199V17.737H64.3586V22H56.4706V17.737H58.1236V10.603H56.4706V6.369H62.7346V8.399C63.6336 6.862 65.0836 6.05 66.9106 6.05C69.4336 6.05 71.5216 7.442 72.2756 9.501C72.5366 10.197 72.5656 11.067 72.5656 11.908V17.737H74.2186V22ZM88.8283 17.331C88.8283 20.115 86.6823 22.348 83.1733 22.348C81.0273 22.348 80.0123 21.681 79.2003 21.014V22H76.0393V17.505H80.4473C80.6213 18.578 81.2303 19.042 82.3903 19.042C83.3763 19.042 83.9563 18.549 83.9563 17.795C83.9563 16.693 82.8543 16.432 79.7803 15.591C77.2283 14.895 75.6623 13.242 75.6623 10.951C75.6623 8.196 77.9243 6.021 81.3463 6.021C83.4053 6.021 84.1593 6.746 84.7103 7.268V6.311H87.7553V10.835H83.5793C83.4923 9.936 82.9413 9.443 82.0133 9.443C81.1723 9.443 80.5343 9.907 80.5343 10.574C80.5343 13.068 88.8283 11.357 88.8283 17.331ZM106.951 14.141C106.951 18.723 103.239 22.493 98.6282 22.493C94.0172 22.493 90.3052 18.752 90.3052 14.17C90.3052 9.588 94.0172 5.876 98.6282 5.876C103.239 5.876 106.951 9.559 106.951 14.141ZM102.282 14.17C102.282 12.082 100.658 10.4 98.6282 10.4C96.5982 10.4 94.9742 12.111 94.9742 14.17C94.9742 16.229 96.5982 17.969 98.6282 17.969C100.658 17.969 102.282 16.229 102.282 14.17ZM119.158 10.864C116.548 11.009 115.127 12.401 115.127 14.837V17.737H116.751V22H108.863V17.737H110.516V10.603H108.863V6.369H114.721V8.718C115.997 6.804 117.244 6.282 119.158 6.137V10.864Z" fill="black"/>
<path d="M28.3143 52H19.2373V47.737H21.2383V38.399L16.6563 52H13.1473L8.62335 38.544V47.737H10.6533V52H1.98235V47.737H4.01235V35.557H1.98235V31.294H10.8273L15.0033 44.025L19.0923 31.294H28.3143V35.557H26.3424V47.737H28.3143V52ZM48.6535 52H42.3895V50.666C41.3745 51.855 39.8955 52.493 38.0975 52.493C33.7475 52.493 30.2385 48.694 30.2385 44.257C30.2385 39.617 33.9215 35.876 38.2715 35.876C40.0405 35.876 41.3745 36.543 42.3895 37.877V36.369H48.6535V40.603H47.0005V47.737H48.6535V52ZM42.4185 44.141C42.4185 42.082 40.7655 40.4 38.7065 40.4C36.6185 40.4 34.9075 42.111 34.9075 44.228C34.9075 46.316 36.5895 47.969 38.6775 47.969C40.7365 47.969 42.4185 46.258 42.4185 44.141ZM59.2718 52H52.4278V40.603H50.2818V36.369H52.4278V31.294H57.0388V36.369H59.1848V40.603H57.0388V47.737H59.2718V52ZM76.9195 46.519C75.7595 50.347 72.3375 52.493 69.0025 52.493C64.6235 52.493 60.7955 48.868 60.7955 44.17C60.7955 39.53 64.4785 35.876 68.6255 35.876C70.1045 35.876 71.3225 36.427 72.3955 37.529V36.369H76.2815V41.995H71.9895C71.2355 41.038 70.3365 40.4 69.0025 40.4C66.9725 40.4 65.4645 42.111 65.4645 44.199C65.4645 46.345 67.0885 47.969 69.1475 47.969C70.2785 47.969 71.2645 47.476 71.8155 46.519H76.9195ZM96.1635 52H89.9285V43.88C89.9285 42.227 89.6385 40.574 87.3765 40.574C85.8975 40.574 84.6795 41.415 84.6795 43.706V47.737H86.3325V52H78.4155V47.737H80.0685V35.557H78.4155V31.294H84.6795V38.428C85.6945 36.862 87.1445 36.05 88.9715 36.05C92.1325 36.05 94.5395 38.573 94.5395 42.778V47.737H96.1635V52Z" fill="#0039F6"/>
<circle cx="106.662" cy="46" r="6.08108" fill="#0039F6"/>
</svg>
