<svg width="24" height="24" viewBox="0 0 24 24" fill="none" xmlns="http://www.w3.org/2000/svg">
<path opacity="0.3" d="M19.8571 13.5714V12C19.8571 11.5832 19.6916 11.1835 19.3969 10.8888C19.1022 10.5941 18.7025 10.4286 18.2857 10.4286H2.57143C2.15466 10.4286 1.75496 10.5941 1.46026 10.8888C1.16556 11.1835 1 11.5832 1 12V21.4286C1 21.8453 1.16556 22.245 1.46026 22.5397C1.75496 22.8344 2.15466 23 2.57143 23H18.2857C18.7025 23 19.1022 22.8344 19.3969 22.5397C19.6916 22.245 19.8571 21.8453 19.8571 21.4286V19.8571M19.8571 13.5714H13.5714C12.7379 13.5714 11.9385 13.9026 11.3491 14.492C10.7597 15.0814 10.4286 15.8807 10.4286 16.7143C10.4286 17.5478 10.7597 18.3472 11.3491 18.9366C11.9385 19.526 12.7379 19.8571 13.5714 19.8571H19.8571M19.8571 13.5714C20.6907 13.5714 21.4901 13.9026 22.0795 14.492C22.6689 15.0814 23 15.8807 23 16.7143C23 17.5478 22.6689 18.3472 22.0795 18.9366C21.4901 19.526 20.6907 19.8571 19.8571 19.8571M5.71429 10.4286V5.71429C5.71429 4.46398 6.21097 3.26488 7.09507 2.38078C7.97917 1.49668 9.17826 1 10.4286 1C11.6789 1 12.878 1.49668 13.7621 2.38078C14.6462 3.26488 15.1429 4.46398 15.1429 5.71429V10.4286M19.0714 16.7143H20.6429M15.9286 16.7143H17.5M12.7857 16.7143H14.3571" stroke="black"/>
</svg>
