<svg width="42" height="42" viewBox="0 0 42 42" fill="none" xmlns="http://www.w3.org/2000/svg">
<path d="M15.75 10.5C15.75 9.10761 16.3031 7.77226 17.2877 6.78769C18.2723 5.80312 19.6076 5.25 21 5.25C22.3924 5.25 23.7277 5.80312 24.7123 6.78769C25.6969 7.77226 26.25 9.10761 26.25 10.5C26.25 11.8924 25.6969 13.2277 24.7123 14.2123C23.7277 15.1969 22.3924 15.75 21 15.75C19.6076 15.75 18.2723 15.1969 17.2877 14.2123C16.3031 13.2277 15.75 11.8924 15.75 10.5ZM11.1562 21C11.1562 19.488 11.7246 18.1073 12.6604 17.0625H7.875C6.83071 17.0625 5.82919 17.4773 5.09077 18.2158C4.35234 18.9542 3.9375 19.9557 3.9375 21V25.5938C3.9375 25.9418 4.07578 26.2757 4.32192 26.5218C4.56806 26.768 4.9019 26.9062 5.25 26.9062H11.1562V21ZM30.8438 21C30.8462 19.5467 30.3104 18.144 29.3396 17.0625H34.125C35.1693 17.0625 36.1708 17.4773 36.9092 18.2158C37.6477 18.9542 38.0625 19.9557 38.0625 21V25.5938C38.0625 25.9418 37.9242 26.2757 37.6781 26.5218C37.4319 26.768 37.0981 26.9062 36.75 26.9062H30.8438V21ZM3.9375 30.8438C3.9375 30.3216 4.14492 29.8208 4.51413 29.4516C4.88335 29.0824 5.38411 28.875 5.90625 28.875H36.0938C36.6159 28.875 37.1167 29.0824 37.4859 29.4516C37.8551 29.8208 38.0625 30.3216 38.0625 30.8438C38.0625 32.4102 37.4402 33.9125 36.3326 35.0201C35.225 36.1277 33.7227 36.75 32.1562 36.75H9.84375C8.27732 36.75 6.77504 36.1277 5.6674 35.0201C4.55976 33.9125 3.9375 32.4102 3.9375 30.8438ZM5.25 11.1562C5.25 9.93791 5.73398 8.76947 6.59548 7.90798C7.45697 7.04648 8.62541 6.5625 9.84375 6.5625C11.0621 6.5625 12.2305 7.04648 13.092 7.90798C13.9535 8.76947 14.4375 9.93791 14.4375 11.1562C14.4375 12.3746 13.9535 13.543 13.092 14.4045C12.2305 15.266 11.0621 15.75 9.84375 15.75C8.62541 15.75 7.45697 15.266 6.59548 14.4045C5.73398 13.543 5.25 12.3746 5.25 11.1562ZM27.5625 11.1562C27.5625 9.93791 28.0465 8.76947 28.908 7.90798C29.7695 7.04648 30.9379 6.5625 32.1562 6.5625C33.3746 6.5625 34.543 7.04648 35.4045 7.90798C36.266 8.76947 36.75 9.93791 36.75 11.1562C36.75 12.3746 36.266 13.543 35.4045 14.4045C34.543 15.266 33.3746 15.75 32.1562 15.75C30.9379 15.75 29.7695 15.266 28.908 14.4045C28.0465 13.543 27.5625 12.3746 27.5625 11.1562ZM13.125 21C13.125 19.9557 13.5398 18.9542 14.2783 18.2158C15.0167 17.4773 16.0182 17.0625 17.0625 17.0625H24.9375C25.9818 17.0625 26.9833 17.4773 27.7217 18.2158C28.4602 18.9542 28.875 19.9557 28.875 21V26.9062H13.125V21Z" fill="#0039F6"/>
</svg>
