<svg width="42" height="42" viewBox="0 0 42 42" fill="none" xmlns="http://www.w3.org/2000/svg">
<path d="M4.375 8.75C4.375 8.05381 4.65156 7.38613 5.14384 6.89384C5.63613 6.40156 6.30381 6.125 7 6.125H35C35.6962 6.125 36.3639 6.40156 36.8562 6.89384C37.3484 7.38613 37.625 8.05381 37.625 8.75C37.625 9.44619 37.3484 10.1139 36.8562 10.6062C36.3639 11.0984 35.6962 11.375 35 11.375H7C6.30381 11.375 5.63613 11.0984 5.14384 10.6062C4.65156 10.1139 4.375 9.44619 4.375 8.75ZM7 18.375C6.30381 18.375 5.63613 18.6516 5.14384 19.1438C4.65156 19.6361 4.375 20.3038 4.375 21C4.375 21.6962 4.65156 22.3639 5.14384 22.8562C5.63613 23.3484 6.30381 23.625 7 23.625H17.5C18.1962 23.625 18.8639 23.3484 19.3562 22.8562C19.8484 22.3639 20.125 21.6962 20.125 21C20.125 20.3038 19.8484 19.6361 19.3562 19.1438C18.8639 18.6516 18.1962 18.375 17.5 18.375H7ZM4.375 33.25C4.375 32.5538 4.65156 31.8861 5.14384 31.3938C5.63613 30.9016 6.30381 30.625 7 30.625H8.75C9.44619 30.625 10.1139 30.9016 10.6062 31.3938C11.0984 31.8861 11.375 32.5538 11.375 33.25C11.375 33.9462 11.0984 34.6139 10.6062 35.1062C10.1139 35.5984 9.44619 35.875 8.75 35.875H7C6.30381 35.875 5.63613 35.5984 5.14384 35.1062C4.65156 34.6139 4.375 33.9462 4.375 33.25ZM21.875 33.25C21.875 32.5538 22.1516 31.8861 22.6438 31.3938C23.1361 30.9016 23.8038 30.625 24.5 30.625H26.25C26.9462 30.625 27.6139 30.9016 28.1062 31.3938C28.5984 31.8861 28.875 32.5538 28.875 33.25C28.875 33.9462 28.5984 34.6139 28.1062 35.1062C27.6139 35.5984 26.9462 35.875 26.25 35.875H24.5C23.8038 35.875 23.1361 35.5984 22.6438 35.1062C22.1516 34.6139 21.875 33.9462 21.875 33.25ZM15.75 30.625C15.0538 30.625 14.3861 30.9016 13.8938 31.3938C13.4016 31.8861 13.125 32.5538 13.125 33.25C13.125 33.9462 13.4016 34.6139 13.8938 35.1062C14.3861 35.5984 15.0538 35.875 15.75 35.875H17.5C18.1962 35.875 18.8639 35.5984 19.3562 35.1062C19.8484 34.6139 20.125 33.9462 20.125 33.25C20.125 32.5538 19.8484 31.8861 19.3562 31.3938C18.8639 30.9016 18.1962 30.625 17.5 30.625H15.75ZM30.625 33.25C30.625 32.5538 30.9016 31.8861 31.3938 31.3938C31.8861 30.9016 32.5538 30.625 33.25 30.625H35C35.6962 30.625 36.3639 30.9016 36.8562 31.3938C37.3484 31.8861 37.625 32.5538 37.625 33.25C37.625 33.9462 37.3484 34.6139 36.8562 35.1062C36.3639 35.5984 35.6962 35.875 35 35.875H33.25C32.5538 35.875 31.8861 35.5984 31.3938 35.1062C30.9016 34.6139 30.625 33.9462 30.625 33.25ZM31.4055 15.1847C31.2872 14.8397 31.0641 14.5401 30.7673 14.3281C30.4705 14.116 30.1148 14.002 29.75 14.002C29.3852 14.002 29.0295 14.116 28.7327 14.3281C28.4359 14.5401 28.2128 14.8397 28.0945 15.1847L27.867 15.8463C27.608 16.6053 27.1785 17.295 26.6116 17.8622C26.0446 18.4295 25.3552 18.8594 24.5963 19.1188L23.9347 19.3445C23.5897 19.4628 23.2901 19.6859 23.0781 19.9827C22.866 20.2795 22.752 20.6352 22.752 21C22.752 21.3648 22.866 21.7205 23.0781 22.0173C23.2901 22.3141 23.5897 22.5372 23.9347 22.6555L24.5963 22.883C25.3553 23.142 26.045 23.5715 26.6122 24.1384C27.1795 24.7054 27.6094 25.3948 27.8687 26.1537L28.0945 26.8153C28.2128 27.1603 28.4359 27.4599 28.7327 27.6719C29.0295 27.884 29.3852 27.998 29.75 27.998C30.1148 27.998 30.4705 27.884 30.7673 27.6719C31.0641 27.4599 31.2872 27.1603 31.4055 26.8153L31.633 26.1537C31.892 25.3947 32.3215 24.705 32.8884 24.1378C33.4554 23.5705 34.1448 23.1406 34.9037 22.8813L35.5653 22.6555C35.9103 22.5372 36.2099 22.3141 36.4219 22.0173C36.634 21.7205 36.748 21.3648 36.748 21C36.748 20.6352 36.634 20.2795 36.4219 19.9827C36.2099 19.6859 35.9103 19.4628 35.5653 19.3445L34.9037 19.117C34.1447 18.858 33.455 18.4285 32.8878 17.8616C32.3205 17.2946 31.8907 16.6052 31.6313 15.8463L31.4055 15.1847Z" fill="#0039F6"/>
</svg>
