<svg width="60" height="60" viewBox="0 0 60 60" fill="none" xmlns="http://www.w3.org/2000/svg">
<circle cx="30" cy="30" r="30" fill="#F2F2F2"/>
<path d="M39.8 16H20.2C19.0861 16 18.0178 16.4425 17.2302 17.2302C16.4425 18.0178 16 19.0861 16 20.2V39.8C16 40.9139 16.4425 41.9822 17.2302 42.7698C18.0178 43.5575 19.0861 44 20.2 44H39.8C40.0303 43.9968 40.2598 43.9734 40.486 43.93L40.906 43.832H41.004H41.074L41.592 43.636L41.774 43.538C41.914 43.454 42.068 43.384 42.208 43.286C42.3949 43.1485 42.5727 42.9988 42.74 42.838L42.838 42.712C42.9754 42.5727 43.1018 42.4229 43.216 42.264L43.342 42.082C43.4398 41.9261 43.5241 41.7622 43.594 41.592C43.6324 41.5248 43.6652 41.4546 43.692 41.382C43.762 41.214 43.804 41.032 43.86 40.85V40.64C43.9394 40.3664 43.9864 40.0845 44 39.8V20.2C44 19.0861 43.5575 18.0178 42.7698 17.2302C41.9822 16.4425 40.9139 16 39.8 16ZM20.2 41.2C19.8287 41.2 19.4726 41.0525 19.2101 40.7899C18.9475 40.5274 18.8 40.1713 18.8 39.8V33.766L23.406 29.146C23.5361 29.0148 23.691 28.9106 23.8616 28.8396C24.0322 28.7685 24.2152 28.7319 24.4 28.7319C24.5848 28.7319 24.7678 28.7685 24.9384 28.8396C25.109 28.9106 25.2639 29.0148 25.394 29.146L37.434 41.2H20.2ZM41.2 39.8C41.1987 39.9726 41.1655 40.1435 41.102 40.304C41.07 40.3722 41.0325 40.4378 40.99 40.5C40.9525 40.5593 40.9104 40.6154 40.864 40.668L33.374 33.178L34.606 31.946C34.7361 31.8148 34.891 31.7106 35.0616 31.6396C35.2322 31.5685 35.4152 31.5319 35.6 31.5319C35.7848 31.5319 35.9678 31.5685 36.1384 31.6396C36.309 31.7106 36.4639 31.8148 36.594 31.946L41.2 36.566V39.8ZM41.2 32.604L38.568 30C37.7668 29.2398 36.7045 28.816 35.6 28.816C34.4955 28.816 33.4332 29.2398 32.632 30L31.4 31.232L27.368 27.2C26.5668 26.4398 25.5045 26.016 24.4 26.016C23.2955 26.016 22.2332 26.4398 21.432 27.2L18.8 29.804V20.2C18.8 19.8287 18.9475 19.4726 19.2101 19.2101C19.4726 18.9475 19.8287 18.8 20.2 18.8H39.8C40.1713 18.8 40.5274 18.9475 40.7899 19.2101C41.0525 19.4726 41.2 19.8287 41.2 20.2V32.604ZM32.1 21.6C31.6847 21.6 31.2786 21.7232 30.9333 21.9539C30.588 22.1847 30.3188 22.5126 30.1599 22.8964C30.0009 23.2801 29.9593 23.7023 30.0404 24.1097C30.1214 24.517 30.3214 24.8912 30.6151 25.1849C30.9088 25.4786 31.2829 25.6786 31.6903 25.7596C32.0977 25.8407 32.5199 25.7991 32.9036 25.6401C33.2874 25.4812 33.6153 25.212 33.8461 24.8667C34.0768 24.5214 34.2 24.1153 34.2 23.7C34.2 23.143 33.9788 22.6089 33.5849 22.2151C33.1911 21.8212 32.657 21.6 32.1 21.6Z" fill="#AAAAAA"/>
</svg>
