<svg width="34" height="34" viewBox="0 0 34 34" fill="none" xmlns="http://www.w3.org/2000/svg">
<path d="M28.9 0H5.1C3.7474 0 2.45019 0.53732 1.49376 1.49376C0.53732 2.45019 0 3.7474 0 5.1V28.9C0 30.2526 0.53732 31.5498 1.49376 32.5062C2.45019 33.4627 3.7474 34 5.1 34H28.9C29.1796 33.9961 29.4584 33.9677 29.733 33.915L30.243 33.796H30.362H30.447L31.076 33.558L31.297 33.439C31.467 33.337 31.654 33.252 31.824 33.133C32.051 32.966 32.2668 32.7843 32.47 32.589L32.589 32.436C32.7559 32.2669 32.9094 32.085 33.048 31.892L33.201 31.671C33.3197 31.4817 33.4221 31.2827 33.507 31.076C33.5536 30.9944 33.5935 30.9091 33.626 30.821C33.711 30.617 33.762 30.396 33.83 30.175V29.92C33.9264 29.5878 33.9834 29.2455 34 28.9V5.1C34 3.7474 33.4627 2.45019 32.5062 1.49376C31.5498 0.53732 30.2526 0 28.9 0ZM5.1 30.6C4.64913 30.6 4.21673 30.4209 3.89792 30.1021C3.57911 29.7833 3.4 29.3509 3.4 28.9V21.573L8.993 15.963C9.15104 15.8037 9.33906 15.6772 9.54622 15.5909C9.75338 15.5046 9.97558 15.4601 10.2 15.4601C10.4244 15.4601 10.6466 15.5046 10.8538 15.5909C11.0609 15.6772 11.249 15.8037 11.407 15.963L26.027 30.6H5.1ZM30.6 28.9C30.5984 29.1096 30.5581 29.3171 30.481 29.512C30.4421 29.5949 30.3967 29.6745 30.345 29.75C30.2995 29.822 30.2484 29.8902 30.192 29.954L21.097 20.859L22.593 19.363C22.751 19.2037 22.9391 19.0772 23.1462 18.9909C23.3534 18.9046 23.5756 18.8601 23.8 18.8601C24.0244 18.8601 24.2466 18.9046 24.4538 18.9909C24.6609 19.0772 24.849 19.2037 25.007 19.363L30.6 24.973V28.9ZM30.6 20.162L27.404 17C26.4311 16.0769 25.1411 15.5623 23.8 15.5623C22.4589 15.5623 21.1689 16.0769 20.196 17L18.7 18.496L13.804 13.6C12.8311 12.6769 11.5411 12.1623 10.2 12.1623C8.85887 12.1623 7.56887 12.6769 6.596 13.6L3.4 16.762V5.1C3.4 4.64913 3.57911 4.21673 3.89792 3.89792C4.21673 3.57911 4.64913 3.4 5.1 3.4H28.9C29.3509 3.4 29.7833 3.57911 30.1021 3.89792C30.4209 4.21673 30.6 4.64913 30.6 5.1V20.162ZM19.55 6.8C19.0457 6.8 18.5526 6.94955 18.1333 7.22975C17.714 7.50995 17.3871 7.90821 17.1941 8.37416C17.0011 8.84011 16.9506 9.35283 17.049 9.84748C17.1474 10.3421 17.3903 10.7965 17.7469 11.1531C18.1035 11.5097 18.5579 11.7526 19.0525 11.851C19.5472 11.9494 20.0599 11.8989 20.5258 11.7059C20.9918 11.5129 21.3901 11.186 21.6702 10.7667C21.9504 10.3474 22.1 9.85434 22.1 9.35C22.1 8.6737 21.8313 8.02509 21.3531 7.54688C20.8749 7.06866 20.2263 6.8 19.55 6.8Z" fill="#AAAAAA"/>
</svg>
