<svg width="28" height="28" viewBox="0 0 28 28" fill="none" xmlns="http://www.w3.org/2000/svg">
<path d="M13.1996 4.80773C13.7388 4.25481 14.3824 3.81446 15.093 3.51221C15.8037 3.20996 16.5673 3.05183 17.3395 3.04699C18.1118 3.04215 18.8773 3.1907 19.5917 3.48402C20.3061 3.77734 20.9551 4.2096 21.5012 4.75571C22.0472 5.30182 22.4794 5.95092 22.7726 6.66536C23.0658 7.37979 23.2142 8.14533 23.2093 8.91758C23.2043 9.68983 23.0461 10.4534 22.7438 11.164C22.4414 11.8746 22.001 12.5182 21.448 13.0572L12.3748 22.1316C12.0508 22.4609 11.6648 22.7229 11.2391 22.9024C10.8133 23.0819 10.3563 23.1752 9.89424 23.1772C9.43221 23.1791 8.97438 23.0896 8.54715 22.9137C8.11991 22.7378 7.73173 22.479 7.40499 22.1524C7.07825 21.8257 6.81942 21.4376 6.64343 21.0104C6.46744 20.5832 6.37777 20.1254 6.3796 19.6634C6.38143 19.2014 6.47471 18.7443 6.65407 18.3185C6.83344 17.8927 7.09533 17.5066 7.42464 17.1826L16.499 8.10822L18.1486 9.75789L9.07431 18.8322C8.96288 18.9398 8.874 19.0686 8.81285 19.2109C8.75171 19.3533 8.71953 19.5063 8.71818 19.6613C8.71683 19.8162 8.74635 19.9698 8.80501 20.1132C8.86368 20.2566 8.9503 20.3868 9.05984 20.4964C9.16939 20.6059 9.29965 20.6925 9.44303 20.7512C9.5864 20.8098 9.74003 20.8394 9.89494 20.838C10.0499 20.8367 10.2029 20.8045 10.3453 20.7433C10.4876 20.6822 10.6164 20.5933 10.724 20.4819L19.7995 11.4076C20.1245 11.0825 20.3823 10.6967 20.5582 10.272C20.7341 9.84731 20.8247 9.39214 20.8247 8.93248C20.8247 8.47281 20.7341 8.01765 20.5582 7.59297C20.3823 7.16829 20.1245 6.78242 19.7995 6.45739C19.4744 6.13236 19.0886 5.87453 18.6639 5.69862C18.2392 5.52272 17.7841 5.43218 17.3244 5.43218C16.8647 5.43218 16.4096 5.52272 15.9849 5.69862C15.5602 5.87453 15.1743 6.13236 14.8493 6.45739L5.77497 15.5329C4.71238 16.6331 4.12442 18.1066 4.13771 19.6361C4.151 21.1655 4.76448 22.6286 5.84603 23.7102C6.92758 24.7917 8.39065 25.4052 9.92013 25.4185C11.4496 25.4318 12.9231 24.8438 14.0233 23.7812L23.9236 13.8821L25.5733 15.5329L15.6741 25.4321C14.1425 26.9637 12.0652 27.8241 9.89914 27.8241C7.73309 27.8241 5.65576 26.9637 4.12414 25.4321C2.59251 23.9004 1.73206 21.8231 1.73206 19.6571C1.73206 17.491 2.59251 15.4137 4.12414 13.8821L13.1996 4.80773Z" fill="#0039F6"/>
</svg>
