<svg width="23" height="23" viewBox="0 0 23 23" fill="none" xmlns="http://www.w3.org/2000/svg">
<path d="M19.55 0H3.45C2.535 0 1.65748 0.363481 1.01048 1.01048C0.363481 1.65748 0 2.535 0 3.45V19.55C0 20.465 0.363481 21.3425 1.01048 21.9895C1.65748 22.6365 2.535 23 3.45 23H19.55C19.7392 22.9974 19.9277 22.9781 20.1135 22.9425L20.4585 22.862H20.539H20.5965L21.022 22.701L21.1715 22.6205C21.2865 22.5515 21.413 22.494 21.528 22.4135C21.6816 22.3005 21.8275 22.1776 21.965 22.0455L22.0455 21.942C22.1584 21.8276 22.2622 21.7045 22.356 21.574L22.4595 21.4245C22.5398 21.2965 22.6091 21.1618 22.6665 21.022C22.6981 20.9668 22.725 20.9091 22.747 20.8495C22.8045 20.7115 22.839 20.562 22.885 20.4125V20.24C22.9502 20.0153 22.9888 19.7837 23 19.55V3.45C23 2.535 22.6365 1.65748 21.9895 1.01048C21.3425 0.363481 20.465 0 19.55 0ZM3.45 20.7C3.145 20.7 2.85249 20.5788 2.63683 20.3632C2.42116 20.1475 2.3 19.855 2.3 19.55V14.5935L6.0835 10.7985C6.19041 10.6907 6.3176 10.6052 6.45774 10.5468C6.59787 10.4884 6.74819 10.4583 6.9 10.4583C7.05181 10.4583 7.20213 10.4884 7.34226 10.5468C7.4824 10.6052 7.60959 10.6907 7.7165 10.7985L17.6065 20.7H3.45ZM20.7 19.55C20.6989 19.6918 20.6716 19.8321 20.6195 19.964C20.5932 20.0201 20.5625 20.0739 20.5275 20.125C20.4967 20.1737 20.4621 20.2198 20.424 20.263L14.2715 14.1105L15.2835 13.0985C15.3904 12.9907 15.5176 12.9052 15.6577 12.8468C15.7979 12.7884 15.9482 12.7583 16.1 12.7583C16.2518 12.7583 16.4021 12.7884 16.5423 12.8468C16.6824 12.9052 16.8096 12.9907 16.9165 13.0985L20.7 16.8935V19.55ZM20.7 13.639L18.538 11.5C17.8799 10.8755 17.0072 10.5274 16.1 10.5274C15.1928 10.5274 14.3201 10.8755 13.662 11.5L12.65 12.512L9.338 9.2C8.67988 8.57554 7.80723 8.22742 6.9 8.22742C5.99277 8.22742 5.12012 8.57554 4.462 9.2L2.3 11.339V3.45C2.3 3.145 2.42116 2.85249 2.63683 2.63683C2.85249 2.42116 3.145 2.3 3.45 2.3H19.55C19.855 2.3 20.1475 2.42116 20.3632 2.63683C20.5788 2.85249 20.7 3.145 20.7 3.45V13.639ZM13.225 4.6C12.8838 4.6 12.5503 4.70117 12.2666 4.89071C11.983 5.08026 11.7619 5.34967 11.6313 5.66487C11.5007 5.98007 11.4666 6.32691 11.5331 6.66153C11.5997 6.99615 11.764 7.30351 12.0052 7.54476C12.2465 7.786 12.5539 7.9503 12.8885 8.01685C13.2231 8.08341 13.5699 8.04925 13.8851 7.91869C14.2003 7.78813 14.4697 7.56703 14.6593 7.28336C14.8488 6.99968 14.95 6.66617 14.95 6.325C14.95 5.8675 14.7683 5.42874 14.4448 5.10524C14.1213 4.78174 13.6825 4.6 13.225 4.6Z" fill="#AAAAAA"/>
</svg>
